<svg xmlns="http://www.w3.org/2000/svg" width="27.884" height="27.884" viewBox="0 0 27.884 27.884">
  <g id="Group_9243" data-name="Group 9243" transform="translate(0.5 0.5)">
    <ellipse id="Ellipse_1346" data-name="Ellipse 1346" cx="13.442" cy="13.442" rx="13.442" ry="13.442" transform="translate(0 0)" fill="none" stroke="#d9f1fd" stroke-miterlimit="10" stroke-width="1"/>
    <path id="Path_23885" data-name="Path 23885" d="M829.736,950.618a6.953,6.953,0,0,1-2,.547,3.489,3.489,0,0,0,1.528-1.922,6.951,6.951,0,0,1-2.207.843,3.476,3.476,0,0,0-6.011,2.377,3.514,3.514,0,0,0,.09.792,9.868,9.868,0,0,1-7.162-3.63,3.48,3.48,0,0,0,1.076,4.639,3.472,3.472,0,0,1-1.574-.435v.044a3.477,3.477,0,0,0,2.787,3.407,3.466,3.466,0,0,1-.915.122,3.5,3.5,0,0,1-.654-.063,3.477,3.477,0,0,0,3.245,2.413,6.969,6.969,0,0,1-4.315,1.488,7.072,7.072,0,0,1-.829-.048,9.882,9.882,0,0,0,15.213-8.325q0-.227-.01-.45A7.05,7.05,0,0,0,829.736,950.618Z" transform="translate(-807.827 -942.429)" fill="#d9f1fd"/>
  </g>
</svg>
