<svg xmlns="http://www.w3.org/2000/svg" width="27.884" height="27.884" viewBox="0 0 27.884 27.884">
  <g id="Group_9247" data-name="Group 9247" transform="translate(0.5 0.5)">
    <ellipse id="Ellipse_1348" data-name="Ellipse 1348" cx="13.442" cy="13.442" rx="13.442" ry="13.442" transform="translate(0 0)" fill="none" stroke="#d9f1fd" stroke-miterlimit="10" stroke-width="1"/>
    <g id="Group_9246" data-name="Group 9246" transform="translate(4.971 7.59)">
      <path id="Path_23888" data-name="Path 23888" d="M1186.793,951.077c-.3-.273-.588-.445-1.733-.551-1.433-.133-3.374-.152-4.842-.154H1178.4c-1.467,0-3.408.021-4.842.154-1.145.106-1.432.278-1.733.551-.794.721-.96,2.691-.982,4.629q-.006.542,0,1.084c.023,1.923.194,3.866.981,4.58.3.273.588.444,1.733.551,1.433.133,3.374.152,4.842.154q.909,0,1.817,0c1.467,0,3.408-.021,4.842-.154,1.145-.107,1.432-.278,1.733-.551.781-.708.955-2.624.981-4.53q.009-.617,0-1.233C1187.748,953.7,1187.574,951.785,1186.793,951.077Zm-9.141,7.736v-5.024l4.274,2.435Z" transform="translate(-1170.841 -950.371)" fill="#d9f1fd"/>
    </g>
  </g>
</svg>
