<svg xmlns="http://www.w3.org/2000/svg" width="108.649" height="95.846" viewBox="0 0 108.649 95.846">
  <path id="Path_6892" data-name="Path 6892" d="M0,0V95.846H95.756V0ZM74.906,48.806l7.368,16.129H77.236l-2.153-5.2-2.3,5.2H67.579ZM13.422,77.69c-5.6-3.816-6.567-8.481-6.567-13.386,0-6.566,3.927-13.576,11.7-15.07a24.751,24.751,0,0,1,13.386,1.18l-.168,5.051c-3.734-2.4-10.356-3.283-14.649-.758-3.827,2.252-5.05,5.557-5.135,9.6-.09,4.307,1.662,8.346,5.909,10.568,2.785,1.456,9.278.751,9.278.751l-.033-7.677-5.6.012.049-4.748H32.4l.021,16.145C26.465,81.132,18.64,81.249,13.422,77.69Zm41.454.05c-4.092,3.2-10.044,2.971-14.783,1.273l.5-5.022c2.758,1.485,7.851,2.831,10.822.071a5.029,5.029,0,0,0,1.132-4.173C50.843,64.937,37.4,65.15,39.88,54.894a8.2,8.2,0,0,1,5.163-5.517c3.466-1.6,8.191-.663,11.567.405,0,0-.746,4.548-.675,4.759-2.829-1.415-6.861-2.265-9.548-.778-1.339.739-1.8,2.813-1.2,4.385,4.385,4.809,12.165,3.678,12.59,12.944A8.9,8.9,0,0,1,54.875,77.741ZM65.563,80.3H60.525l6.718-15.116,3.61,3.275-2.686,6.13,6.55-3.36,3.611,2.856Zm17.887,0L78.491,68.564l3.555-3.469L88.909,80.3ZM105.535,3.65a1.051,1.051,0,0,0,1.044-1.062.971.971,0,0,0-.574-.84,2.354,2.354,0,0,0-1-.121h-1.258V5.288h.593V3.734h.35c.452,0,.62.157,1.091.98l.324.573h.721l-.442-.714C106.015,3.984,105.81,3.762,105.535,3.65Zm-.472-.424h-.722v-1.1h.675c.684,0,.936.138.936.545C105.952,3.06,105.673,3.226,105.064,3.226ZM105.246,0a3.407,3.407,0,1,0,3.4,3.4A3.407,3.407,0,0,0,105.246,0Zm0,6.25A2.843,2.843,0,1,1,108.086,3.4,2.848,2.848,0,0,1,105.246,6.25Z" fill="#fff"/>
</svg>
