<?xml version="1.0" encoding="utf-8"?>
<!-- Generator: Adobe Illustrator 24.1.0, SVG Export Plug-In . SVG Version: 6.00 Build 0)  -->
<svg version="1.1" id="Group_1375" xmlns="http://www.w3.org/2000/svg" xmlns:xlink="http://www.w3.org/1999/xlink" x="0px" y="0px"
	 viewBox="0 0 104.71 130.33" style="enable-background:new 0 0 104.71 130.33;" xml:space="preserve">
<style type="text/css">
	.st0{clip-path:url(#SVGID_2_);}
	.st1{fill:#032340;}
	.st2{fill:#032341;}
	.st3{fill:#032441;}
	.st4{fill:#032442;}
	.st5{fill:#032443;}
	.st6{fill:#032543;}
	.st7{fill:#032544;}
	.st8{fill:#032645;}
	.st9{fill:#032646;}
	.st10{fill:#032746;}
	.st11{fill:#032747;}
	.st12{fill:#032748;}
	.st13{fill:#032848;}
	.st14{fill:#042849;}
	.st15{fill:#04284A;}
	.st16{fill:#04294A;}
	.st17{fill:#04294B;}
	.st18{fill:#04294C;}
	.st19{fill:#042A4C;}
	.st20{fill:#042A4D;}
	.st21{fill:#042A4E;}
	.st22{fill:#042B4E;}
	.st23{fill:#042B4F;}
	.st24{fill:#042C50;}
	.st25{fill:#042C51;}
	.st26{fill:#042D52;}
	.st27{fill:#042D53;}
	.st28{fill:#042E54;}
	.st29{fill:#032E55;}
	.st30{fill:#032F56;}
	.st31{fill:#032F57;}
	.st32{fill:#033058;}
	.st33{fill:#023058;}
	.st34{fill:#023059;}
	.st35{fill:#02315A;}
	.st36{fill:#01315A;}
	.st37{fill:#00315B;}
	.st38{fill:#00325C;}
	.st39{fill:#00325D;}
	.st40{fill:#00335E;}
	.st41{fill:#00335F;}
	.st42{fill:#003460;}
	.st43{fill:#003461;}
	.st44{fill:#003562;}
	.st45{fill:#003563;}
	.st46{fill:#003664;}
	.st47{fill:#003665;}
	.st48{fill:#003766;}
	.st49{fill:#003767;}
	.st50{fill:#003868;}
	.st51{fill:#003869;}
	.st52{fill:#00386A;}
	.st53{fill:#00396A;}
	.st54{fill:#00396B;}
	.st55{fill:#003A6C;}
	.st56{fill:#003A6D;}
	.st57{fill:#003A6E;}
	.st58{fill:#003B6E;}
	.st59{fill:#003B6F;}
	.st60{fill:#003B70;}
	.st61{fill:#003C71;}
	.st62{fill:#003C72;}
	.st63{fill:#003D72;}
	.st64{fill:#003D73;}
	.st65{fill:#003D74;}
	.st66{fill:#003E75;}
	.st67{fill:#003E76;}
	.st68{fill:#003F77;}
	.st69{fill:#003F78;}
	.st70{fill:#004079;}
	.st71{fill:#00407A;}
	.st72{fill:#00417B;}
	.st73{fill:#00417C;}
	.st74{fill:#00417D;}
	.st75{fill:#00427E;}
	.st76{fill:#00437F;}
	.st77{fill:#004380;}
	.st78{fill:#004381;}
	.st79{fill:#004482;}
	.st80{fill:#004483;}
	.st81{fill:#D9002F;}
	.st82{fill:#FFFFFF;}
</style>
<g id="Group_962">
	<g id="Group_961">
		<g>
			<defs>
				<rect id="SVGID_1_" x="6.4" y="7" width="91.92" height="91.92"/>
			</defs>
			<clipPath id="SVGID_2_">
				<use xlink:href="#SVGID_1_"  style="overflow:visible;"/>
			</clipPath>
			<g id="Group_960" class="st0">
				<rect id="Rectangle_1200" x="6.4" y="7" class="st1" width="91.92" height="91.92"/>
				<circle id="Ellipse_11" class="st1" cx="52.36" cy="52.96" r="45.96"/>
				<circle id="Ellipse_12" class="st1" cx="52.36" cy="52.96" r="43.57"/>
				<circle id="Ellipse_13" class="st1" cx="52.36" cy="52.96" r="41.18"/>
				<circle id="Ellipse_14" class="st2" cx="52.36" cy="52.96" r="40.73"/>
				<circle id="Ellipse_15" class="st3" cx="52.36" cy="52.96" r="40.27"/>
				<circle id="Ellipse_16" class="st4" cx="52.36" cy="52.96" r="39.81"/>
				<circle id="Ellipse_17" class="st5" cx="52.36" cy="52.96" r="39.35"/>
				<circle id="Ellipse_18" class="st6" cx="52.36" cy="52.96" r="38.9"/>
				<circle id="Ellipse_19" class="st7" cx="52.36" cy="52.96" r="38.44"/>
				<circle id="Ellipse_20" class="st7" cx="52.36" cy="52.96" r="37.98"/>
				<circle id="Ellipse_21" class="st8" cx="52.36" cy="52.96" r="37.52"/>
				<circle id="Ellipse_22" class="st9" cx="52.36" cy="52.96" r="37.07"/>
				<circle id="Ellipse_23" class="st10" cx="52.36" cy="52.96" r="36.61"/>
				<circle id="Ellipse_24" class="st11" cx="52.36" cy="52.96" r="36.15"/>
				<circle id="Ellipse_25" class="st12" cx="52.36" cy="52.96" r="35.69"/>
				<circle id="Ellipse_26" class="st13" cx="52.36" cy="52.96" r="35.24"/>
				<circle id="Ellipse_27" class="st14" cx="52.36" cy="52.96" r="34.78"/>
				<circle id="Ellipse_28" class="st15" cx="52.36" cy="52.96" r="34.32"/>
				<circle id="Ellipse_29" class="st16" cx="52.36" cy="52.96" r="33.86"/>
				<circle id="Ellipse_30" class="st17" cx="52.36" cy="52.96" r="33.4"/>
				<circle id="Ellipse_31" class="st18" cx="52.36" cy="52.96" r="32.95"/>
				<circle id="Ellipse_32" class="st19" cx="52.36" cy="52.96" r="32.49"/>
				<circle id="Ellipse_33" class="st20" cx="52.36" cy="52.96" r="32.03"/>
				<circle id="Ellipse_34" class="st21" cx="52.36" cy="52.96" r="31.58"/>
				<circle id="Ellipse_35" class="st22" cx="52.36" cy="52.96" r="31.12"/>
				<circle id="Ellipse_36" class="st23" cx="52.36" cy="52.96" r="30.66"/>
				<circle id="Ellipse_37" class="st24" cx="52.36" cy="52.96" r="30.2"/>
				<circle id="Ellipse_38" class="st24" cx="52.36" cy="52.96" r="29.74"/>
				<circle id="Ellipse_39" class="st25" cx="52.36" cy="52.96" r="29.29"/>
				<circle id="Ellipse_40" class="st26" cx="52.36" cy="52.96" r="28.83"/>
				<circle id="Ellipse_41" class="st27" cx="52.36" cy="52.96" r="28.37"/>
				<circle id="Ellipse_42" class="st27" cx="52.36" cy="52.96" r="27.91"/>
				<circle id="Ellipse_43" class="st28" cx="52.36" cy="52.96" r="27.46"/>
				<circle id="Ellipse_44" class="st29" cx="52.36" cy="52.96" r="27"/>
				<circle id="Ellipse_45" class="st29" cx="52.36" cy="52.96" r="26.54"/>
				<circle id="Ellipse_46" class="st30" cx="52.36" cy="52.96" r="26.08"/>
				<circle id="Ellipse_47" class="st31" cx="52.36" cy="52.96" r="25.63"/>
				<circle id="Ellipse_48" class="st32" cx="52.36" cy="52.96" r="25.17"/>
				<circle id="Ellipse_49" class="st33" cx="52.36" cy="52.96" r="24.71"/>
				<circle id="Ellipse_50" class="st34" cx="52.36" cy="52.96" r="24.25"/>
				<circle id="Ellipse_51" class="st35" cx="52.36" cy="52.96" r="23.8"/>
				<circle id="Ellipse_52" class="st36" cx="52.36" cy="52.96" r="23.34"/>
				<circle id="Ellipse_53" class="st37" cx="52.36" cy="52.96" r="22.88"/>
				<circle id="Ellipse_54" class="st38" cx="52.36" cy="52.96" r="22.42"/>
				<circle id="Ellipse_55" class="st39" cx="52.36" cy="52.96" r="21.97"/>
				<circle id="Ellipse_56" class="st39" cx="52.36" cy="52.96" r="21.51"/>
				<circle id="Ellipse_57" class="st40" cx="52.36" cy="52.96" r="21.05"/>
				<circle id="Ellipse_58" class="st41" cx="52.36" cy="52.96" r="20.59"/>
				<circle id="Ellipse_59" class="st42" cx="52.36" cy="52.96" r="20.14"/>
				<circle id="Ellipse_60" class="st42" cx="52.36" cy="52.96" r="19.68"/>
				<circle id="Ellipse_61" class="st43" cx="52.36" cy="52.96" r="19.22"/>
				<circle id="Ellipse_62" class="st44" cx="52.36" cy="52.96" r="18.76"/>
				<circle id="Ellipse_63" class="st45" cx="52.36" cy="52.96" r="18.3"/>
				<circle id="Ellipse_64" class="st45" cx="52.36" cy="52.96" r="17.85"/>
				<circle id="Ellipse_65" class="st46" cx="52.36" cy="52.96" r="17.39"/>
				<circle id="Ellipse_66" class="st47" cx="52.36" cy="52.96" r="16.93"/>
				<circle id="Ellipse_67" class="st48" cx="52.36" cy="52.96" r="16.47"/>
				<circle id="Ellipse_68" class="st48" cx="52.36" cy="52.96" r="16.02"/>
				<circle id="Ellipse_69" class="st49" cx="52.36" cy="52.96" r="15.56"/>
				<circle id="Ellipse_70" class="st50" cx="52.36" cy="52.96" r="15.1"/>
				<circle id="Ellipse_71" class="st51" cx="52.36" cy="52.96" r="14.64"/>
				<circle id="Ellipse_72" class="st52" cx="52.36" cy="52.96" r="14.19"/>
				<circle id="Ellipse_73" class="st53" cx="52.36" cy="52.96" r="13.73"/>
				<circle id="Ellipse_74" class="st54" cx="52.36" cy="52.96" r="13.27"/>
				<circle id="Ellipse_75" class="st55" cx="52.36" cy="52.96" r="12.81"/>
				<circle id="Ellipse_76" class="st56" cx="52.36" cy="52.96" r="12.35"/>
				<circle id="Ellipse_77" class="st57" cx="52.36" cy="52.96" r="11.9"/>
				<circle id="Ellipse_78" class="st58" cx="52.36" cy="52.96" r="11.44"/>
				<circle id="Ellipse_79" class="st59" cx="52.36" cy="52.96" r="10.98"/>
				<circle id="Ellipse_80" class="st60" cx="52.36" cy="52.96" r="10.52"/>
				<circle id="Ellipse_81" class="st61" cx="52.36" cy="52.96" r="10.07"/>
				<circle id="Ellipse_82" class="st62" cx="52.36" cy="52.96" r="9.61"/>
				<circle id="Ellipse_83" class="st63" cx="52.36" cy="52.96" r="9.15"/>
				<circle id="Ellipse_84" class="st64" cx="52.36" cy="52.96" r="8.69"/>
				<circle id="Ellipse_85" class="st65" cx="52.36" cy="52.96" r="8.24"/>
				<circle id="Ellipse_86" class="st66" cx="52.36" cy="52.96" r="7.78"/>
				<circle id="Ellipse_87" class="st67" cx="52.36" cy="52.96" r="7.32"/>
				<circle id="Ellipse_88" class="st68" cx="52.36" cy="52.96" r="6.86"/>
				<circle id="Ellipse_89" class="st68" cx="52.36" cy="52.96" r="6.41"/>
				<circle id="Ellipse_90" class="st69" cx="52.36" cy="52.96" r="5.95"/>
				<circle id="Ellipse_91" class="st70" cx="52.36" cy="52.96" r="5.49"/>
				<circle id="Ellipse_92" class="st71" cx="52.36" cy="52.96" r="5.03"/>
				<circle id="Ellipse_93" class="st72" cx="52.36" cy="52.96" r="4.58"/>
				<circle id="Ellipse_94" class="st73" cx="52.36" cy="52.96" r="4.12"/>
				<circle id="Ellipse_95" class="st74" cx="52.36" cy="52.96" r="3.66"/>
				<circle id="Ellipse_96" class="st75" cx="52.36" cy="52.96" r="3.2"/>
				<circle id="Ellipse_97" class="st75" cx="52.36" cy="52.96" r="2.75"/>
				<circle id="Ellipse_98" class="st76" cx="52.36" cy="52.96" r="2.29"/>
				<circle id="Ellipse_99" class="st77" cx="52.36" cy="52.96" r="1.83"/>
				<circle id="Ellipse_100" class="st78" cx="52.36" cy="52.96" r="1.37"/>
				<circle id="Ellipse_101" class="st79" cx="52.36" cy="52.96" r="0.92"/>
				<circle id="Ellipse_102" class="st80" cx="52.36" cy="52.96" r="0.46"/>
			</g>
		</g>
	</g>
</g>
<path id="Path_991" class="st81" d="M8.44,109.76v5.28h6.2v1.66h-6.2v6.49H6.4v-15.09h9.3v1.66H8.44z M26.53,121.69
	c-0.24,0.29-0.52,0.53-0.83,0.73c-0.33,0.21-0.67,0.38-1.04,0.51c-0.37,0.13-0.75,0.23-1.14,0.3c-0.39,0.07-0.78,0.1-1.17,0.1
	c-0.7,0.01-1.39-0.12-2.04-0.37c-0.61-0.24-1.16-0.62-1.61-1.1c-0.47-0.51-0.83-1.12-1.06-1.78c-0.27-0.79-0.39-1.61-0.38-2.44
	c-0.01-0.71,0.11-1.41,0.34-2.09c0.21-0.62,0.55-1.19,0.99-1.68c0.44-0.48,0.97-0.86,1.57-1.12c0.66-0.28,1.37-0.42,2.09-0.4
	c0.61-0.01,1.21,0.1,1.77,0.32c0.53,0.21,1.01,0.52,1.41,0.93c0.41,0.43,0.73,0.94,0.93,1.5c0.23,0.65,0.35,1.34,0.34,2.03
	c0.02,0.2-0.01,0.4-0.09,0.59c-0.09,0.11-0.22,0.16-0.36,0.15h-7.13c0.01,0.6,0.1,1.19,0.28,1.76c0.14,0.46,0.38,0.88,0.69,1.25
	c0.29,0.33,0.65,0.58,1.05,0.75c0.44,0.17,0.9,0.25,1.37,0.25c0.41,0.01,0.82-0.05,1.22-0.16c0.3-0.09,0.6-0.21,0.88-0.35
	c0.21-0.11,0.42-0.22,0.61-0.35c0.12-0.09,0.27-0.15,0.43-0.16c0.14-0.01,0.28,0.06,0.36,0.18L26.53,121.69z M25.01,116.69
	c0-0.41-0.06-0.81-0.18-1.2c-0.11-0.35-0.3-0.66-0.54-0.94c-0.24-0.26-0.53-0.47-0.86-0.61c-0.36-0.15-0.75-0.22-1.15-0.22
	c-0.79-0.04-1.56,0.24-2.13,0.78c-0.56,0.6-0.9,1.36-0.97,2.18L25.01,116.69z M37.81,107.68v15.51H36.7
	c-0.24,0.02-0.46-0.15-0.5-0.39l-0.17-1.3c-0.44,0.53-0.96,0.98-1.56,1.33c-0.62,0.34-1.31,0.52-2.02,0.5
	c-0.57,0.01-1.14-0.11-1.67-0.35c-0.5-0.24-0.94-0.59-1.27-1.04c-0.38-0.51-0.65-1.09-0.81-1.71c-0.2-0.77-0.3-1.56-0.28-2.35
	c-0.01-0.75,0.1-1.49,0.32-2.2c0.19-0.64,0.5-1.24,0.91-1.76c0.39-0.49,0.88-0.9,1.45-1.17c0.6-0.29,1.26-0.44,1.93-0.43
	c0.58-0.02,1.15,0.1,1.68,0.33c0.47,0.22,0.9,0.54,1.25,0.92v-5.91L37.81,107.68z M35.93,115.06c-0.29-0.42-0.68-0.76-1.14-0.99
	c-0.43-0.19-0.9-0.29-1.37-0.28c-0.89-0.05-1.75,0.35-2.29,1.06c-0.59,0.9-0.87,1.96-0.8,3.03c-0.01,0.6,0.05,1.2,0.18,1.79
	c0.09,0.44,0.27,0.85,0.53,1.22c0.22,0.31,0.51,0.55,0.85,0.7c0.36,0.15,0.75,0.23,1.15,0.22c0.57,0.01,1.13-0.13,1.62-0.42
	c0.49-0.31,0.92-0.72,1.27-1.19L35.93,115.06z M52.37,123.19h-1.81c-0.33,0.02-0.65-0.15-0.82-0.43l-3.92-5.39
	c-0.1-0.15-0.23-0.27-0.38-0.36c-0.2-0.09-0.42-0.12-0.64-0.11h-1.55v6.3h-2.03v-15.1h4.26c0.83-0.01,1.67,0.08,2.47,0.29
	c0.63,0.16,1.21,0.44,1.72,0.84c0.44,0.35,0.79,0.8,1.01,1.32c0.22,0.55,0.34,1.14,0.33,1.73c0.01,0.51-0.08,1.02-0.25,1.5
	c-0.17,0.46-0.41,0.88-0.73,1.25c-0.33,0.38-0.73,0.7-1.17,0.94c-0.49,0.27-1.02,0.47-1.56,0.59c0.27,0.16,0.5,0.38,0.67,0.64
	L52.37,123.19z M45.4,115.41c0.53,0.01,1.06-0.06,1.56-0.22c0.42-0.12,0.8-0.33,1.14-0.61c0.3-0.26,0.54-0.58,0.69-0.94
	c0.16-0.38,0.24-0.8,0.23-1.21c0.05-0.78-0.28-1.54-0.89-2.03c-0.79-0.51-1.72-0.75-2.65-0.68h-2.23v5.7L45.4,115.41z M66.69,123.19
	h-1.58c-0.16,0.01-0.32-0.04-0.44-0.14c-0.11-0.09-0.2-0.21-0.25-0.35L63,119.06h-6.77l-1.41,3.64c-0.05,0.13-0.13,0.25-0.24,0.34
	c-0.13,0.1-0.28,0.15-0.44,0.15h-1.58l6.03-15.09h2.06L66.69,123.19z M62.43,117.59l-2.37-6.14c-0.07-0.18-0.14-0.4-0.22-0.64
	s-0.15-0.5-0.22-0.77c-0.12,0.48-0.27,0.96-0.45,1.42l-2.37,6.12L62.43,117.59z M84.38,108.1v15.09h-1.79V112.1
	c0-0.15,0.01-0.31,0.02-0.47s0.02-0.34,0.04-0.52l-5.18,9.44c-0.13,0.29-0.42,0.48-0.74,0.47h-0.29c-0.32,0.01-0.61-0.18-0.74-0.47
	l-5.29-9.48c0.04,0.34,0.06,0.69,0.06,1.03v11.09h-1.79v-15.09h1.51c0.14-0.01,0.29,0.01,0.42,0.05c0.13,0.06,0.23,0.17,0.28,0.29
	l5.21,9.29c0.08,0.17,0.17,0.34,0.25,0.53c0.08,0.18,0.16,0.37,0.23,0.56c0.07-0.19,0.14-0.38,0.22-0.56
	c0.08-0.18,0.16-0.36,0.25-0.53l5.12-9.28c0.05-0.13,0.15-0.23,0.28-0.29c0.14-0.04,0.28-0.06,0.43-0.05L84.38,108.1z M92.69,108.1
	c0.84-0.02,1.68,0.1,2.49,0.33c0.64,0.19,1.24,0.51,1.75,0.94c0.46,0.4,0.81,0.91,1.04,1.47c0.24,0.61,0.35,1.27,0.34,1.93
	c0.01,0.66-0.12,1.32-0.37,1.93c-0.24,0.58-0.61,1.09-1.08,1.51c-0.51,0.44-1.11,0.78-1.76,0.99c-0.78,0.25-1.6,0.37-2.42,0.35
	h-2.42v5.65h-2.03v-15.1L92.69,108.1z M92.69,115.92c0.52,0.01,1.04-0.07,1.54-0.23c0.42-0.14,0.8-0.36,1.13-0.65
	c0.3-0.27,0.54-0.61,0.69-0.99c0.16-0.41,0.24-0.84,0.23-1.27c0.05-0.85-0.28-1.67-0.89-2.25c-0.77-0.6-1.73-0.89-2.7-0.81h-2.42
	v6.21L92.69,115.92z"/>
<path id="Path_992" class="st82" d="M77.47,58.52l10.36,19.98h-12.8L65.5,60.31h-6.62v18.18H47.31L47.3,53.38
	c0-0.06-0.01-0.11-0.01-0.17s0.01-0.11,0.01-0.17v-0.27h0.01c0.2-1.94,1.67-3.51,3.6-3.82v-0.04h0.24c0.15-0.02,0.3-0.02,0.45-0.02
	c0.13,0,0.26,0.01,0.4,0.02h0.88c0.1-0.01,0.2-0.01,0.3-0.01l18.88-0.01c1.04-0.08,2.02-0.49,2.82-1.16
	c2.12-1.79,2.39-4.96,0.6-7.08c-0.93-1.1-2.29-1.75-3.73-1.79l-1.52-0.03h-42.4V48.9h14.8v11.37h-14.8V78.5H16.26V32.72
	c0-3.02,2.45-5.47,5.47-5.47H71.9c8.91,0.03,16.11,7.27,16.09,16.18C87.97,50.17,83.78,56.18,77.47,58.52z"/>
</svg>
