<svg id="Group_3552" data-name="Group 3552" xmlns="http://www.w3.org/2000/svg" width="100" height="99.463" viewBox="0 0 100 99.463">
  <ellipse id="Ellipse_603" data-name="Ellipse 603" cx="49.732" cy="49.732" rx="49.732" ry="49.732" transform="translate(0.537 0)" fill="#d9f1fd"/>
  <rect id="Rectangle_2314" data-name="Rectangle 2314" width="69.854" height="43.333" transform="translate(15.801 30.251)" fill="#d9f1fd" style="mix-blend-mode: multiply;isolation: isolate"/>
  <path id="Path_7330" data-name="Path 7330" d="M-499.372,34.2l6.6-2.712-6.6,2.712Z" transform="translate(525.39 -12.852)" fill="none"/>
  <path id="Path_7331" data-name="Path 7331" d="M-441.3,31.507h-.017l-37.813-16.724h0l-37.813,16.724H-441.3Z" transform="translate(529.474 -8.968)" fill="#fff"/>
  <path id="Path_7332" data-name="Path 7332" d="M-473.835,21.219h0l20.862,9.227h-42.152Z" transform="translate(524.403 -10.464)" fill="#c71f25"/>
  <rect id="Rectangle_2315" data-name="Rectangle 2315" width="85.978" height="1.485" transform="translate(7.365 22.539)" fill="#fff"/>
  <rect id="Rectangle_2316" data-name="Rectangle 2316" width="83.145" height="5.797" transform="translate(8.782 24.024)" fill="#d9f1fd"/>
  <rect id="Rectangle_2317" data-name="Rectangle 2317" width="83.145" height="1.379" transform="translate(8.782 24.024)" fill="#c2e9f9" style="mix-blend-mode: multiply;isolation: isolate"/>
  <rect id="Rectangle_2318" data-name="Rectangle 2318" width="84.059" height="2.395" transform="translate(8.325 29.054)" fill="#fff"/>
  <path id="Path_7333" data-name="Path 7333" d="M-465.451,52.415l-.125,35.38a1.2,1.2,0,0,1,.43-.083,1.208,1.208,0,0,1,1.208,1.207,1.208,1.208,0,0,1-1.208,1.208h-6.472a1.208,1.208,0,0,1-1.207-1.208,1.208,1.208,0,0,1,1.207-1.207,1.205,1.205,0,0,1,.429.082l-.124-35.379a1.212,1.212,0,0,1-.3.044,1.208,1.208,0,0,1-1.207-1.207,1.208,1.208,0,0,1,1.207-1.208h6.472a1.208,1.208,0,0,1,1.208,1.208,1.208,1.208,0,0,1-1.208,1.207A1.207,1.207,0,0,1-465.451,52.415Zm-43.907.044a1.208,1.208,0,0,0,1.208-1.207,1.208,1.208,0,0,0-1.208-1.208h-6.472a1.208,1.208,0,0,0-1.207,1.208,1.208,1.208,0,0,0,1.207,1.207,1.208,1.208,0,0,0,.3-.044l.125,35.379a1.209,1.209,0,0,0-.43-.082,1.208,1.208,0,0,0-1.207,1.207,1.208,1.208,0,0,0,1.207,1.208h6.472a1.208,1.208,0,0,0,1.208-1.208,1.208,1.208,0,0,0-1.208-1.207,1.2,1.2,0,0,0-.43.083l.126-35.38A1.2,1.2,0,0,0-509.359,52.458Zm22.465,0a1.208,1.208,0,0,0,1.208-1.207,1.208,1.208,0,0,0-1.208-1.208h-6.472a1.208,1.208,0,0,0-1.207,1.208,1.208,1.208,0,0,0,1.207,1.207,1.2,1.2,0,0,0,.3-.044l.125,35.379a1.206,1.206,0,0,0-.429-.082,1.208,1.208,0,0,0-1.207,1.207,1.208,1.208,0,0,0,1.207,1.208h6.472a1.208,1.208,0,0,0,1.208-1.208,1.208,1.208,0,0,0-1.208-1.207,1.189,1.189,0,0,0-.429.083l.125-35.38A1.2,1.2,0,0,0-486.893,52.458Zm44.212,35.253a1.159,1.159,0,0,0-.232.024l.125-35.288c.035,0,.07.011.107.011a1.208,1.208,0,0,0,1.208-1.207,1.208,1.208,0,0,0-1.208-1.208h-6.472a1.208,1.208,0,0,0-1.207,1.208,1.208,1.208,0,0,0,1.207,1.207,1.2,1.2,0,0,0,.5-.113l.125,35.546a1.2,1.2,0,0,0-.628-.18,1.208,1.208,0,0,0-1.207,1.207,1.208,1.208,0,0,0,1.207,1.208h6.472a1.208,1.208,0,0,0,1.208-1.208A1.208,1.208,0,0,0-442.681,87.712Z" transform="translate(529.497 -17.164)" fill="#c2e9f9" style="mix-blend-mode: multiply;isolation: isolate"/>
  <path id="Path_7334" data-name="Path 7334" d="M-465.373,50.63l-.129,36.549a1.236,1.236,0,0,1,.444-.085,1.247,1.247,0,0,1,1.248,1.246,1.248,1.248,0,0,1-1.248,1.248h-6.685a1.249,1.249,0,0,1-1.248-1.248,1.248,1.248,0,0,1,1.248-1.246,1.231,1.231,0,0,1,.443.084l-.129-36.547a1.245,1.245,0,0,1-.314.045,1.248,1.248,0,0,1-1.248-1.246,1.249,1.249,0,0,1,1.248-1.249h6.685a1.248,1.248,0,0,1,1.248,1.249,1.247,1.247,0,0,1-1.248,1.246A1.213,1.213,0,0,1-465.373,50.63Zm-45.358.045a1.247,1.247,0,0,0,1.248-1.246,1.248,1.248,0,0,0-1.248-1.249h-6.685a1.249,1.249,0,0,0-1.247,1.249,1.248,1.248,0,0,0,1.247,1.246,1.223,1.223,0,0,0,.315-.045l.128,36.548a1.249,1.249,0,0,0-.444-.084,1.248,1.248,0,0,0-1.247,1.246,1.248,1.248,0,0,0,1.247,1.248h6.685a1.248,1.248,0,0,0,1.248-1.248,1.247,1.247,0,0,0-1.248-1.246,1.24,1.24,0,0,0-.444.085l.13-36.549A1.216,1.216,0,0,0-510.731,50.675Zm23.207,0a1.247,1.247,0,0,0,1.248-1.246,1.248,1.248,0,0,0-1.248-1.249h-6.685a1.249,1.249,0,0,0-1.248,1.249,1.248,1.248,0,0,0,1.248,1.246,1.245,1.245,0,0,0,.314-.045l.13,36.547a1.252,1.252,0,0,0-.444-.084,1.248,1.248,0,0,0-1.248,1.246,1.248,1.248,0,0,0,1.248,1.248h6.685a1.248,1.248,0,0,0,1.248-1.248,1.247,1.247,0,0,0-1.248-1.246,1.232,1.232,0,0,0-.443.085l.129-36.548A1.251,1.251,0,0,0-487.524,50.675Zm45.673,36.418a1.229,1.229,0,0,0-.239.024l.129-36.453c.037,0,.073.011.111.011a1.248,1.248,0,0,0,1.248-1.246,1.249,1.249,0,0,0-1.248-1.249h-6.685a1.249,1.249,0,0,0-1.248,1.249,1.248,1.248,0,0,0,1.248,1.246,1.237,1.237,0,0,0,.519-.116l.13,36.721a1.238,1.238,0,0,0-.649-.187,1.248,1.248,0,0,0-1.248,1.246,1.248,1.248,0,0,0,1.248,1.248h6.685A1.248,1.248,0,0,0-440.6,88.34,1.248,1.248,0,0,0-441.851,87.094Z" transform="translate(529.875 -16.731)" fill="#0a90b7"/>
  <path id="Path_7335" data-name="Path 7335" d="M-473.835,21.219h0l2.3,1.017-19.682,8.209h-3.909Z" transform="translate(524.403 -10.464)" fill="#c71f25" opacity="0.5" style="mix-blend-mode: multiply;isolation: isolate"/>
  <path id="Path_7336" data-name="Path 7336" d="M-435.411,110.915v-3.249h-1.865v-2.849h-1.865v-2.688h-88.427v2.688h-1.865v2.849H-531.3v3.249h-1.97v3.416h99.829v-3.416Z" transform="translate(533.27 -29.272)" fill="#fff"/>
  <rect id="Rectangle_2319" data-name="Rectangle 2319" width="92.158" height="2.849" transform="translate(3.836 75.545)" fill="#cdecfc" style="mix-blend-mode: multiply;isolation: isolate"/>
  <rect id="Rectangle_2320" data-name="Rectangle 2320" width="99.829" height="3.416" transform="translate(0 81.643)" fill="#cdecfc" style="mix-blend-mode: multiply;isolation: isolate"/>
  <rect id="Rectangle_2321" data-name="Rectangle 2321" width="92.158" height="2.849" transform="translate(3.836 75.545)" fill="#0a90b7"/>
  <path id="Path_7337" data-name="Path 7337" d="M-498.429,67.441H-501.6V60.807h3.175Zm.6-7.148h3.171v-2.67h-3.171Zm-.6,0v-2.67H-501.6v2.67Zm.6,7.148h3.171V60.807h-3.171Zm3.171-11.717H-501.6v.5h6.942Zm18.7,5.083h-3.175v6.634h3.175Zm.6-.514h3.171v-2.67h-3.171Zm-.6,0v-2.67h-3.175v2.67Zm.6,7.148h3.171V60.807h-3.171Zm3.171-11.717h-6.942v.5h6.942Zm18.7,5.083h-3.175v6.634h3.175Zm.6-.514h3.171v-2.67H-452.9Zm-.6,0v-2.67h-3.175v2.67Zm.6,7.148h3.171V60.807H-452.9Zm3.171-11.717h-6.942v.5h6.942Zm-48.7,23.1H-501.6v6.634h3.175Zm.6-.514h3.171v-2.67h-3.171Zm-.6,0v-2.67H-501.6v2.67Zm.6,7.148h3.171V78.82h-3.171Zm3.171-11.717H-501.6v.5h6.942ZM-453.5,78.82h-3.175v6.634h3.175Zm.6-.514h3.171v-2.67H-452.9Zm-.6,0v-2.67h-3.175v2.67Zm.6,7.148h3.171V78.82H-452.9Zm3.171-11.717h-6.942v.5h6.942Zm-30.9,17.706V80.6h9.925V91.442Zm0-12.365a5.162,5.162,0,0,1,4.963-5.341,5.16,5.16,0,0,1,4.962,5.341v.761h-9.925Z" transform="translate(525.909 -18.485)" fill="#d9f1fd"/>
  <rect id="Rectangle_2322" data-name="Rectangle 2322" width="99.829" height="3.416" transform="translate(0 81.643)" fill="#0a90b7"/>
  <path id="Path_7338" data-name="Path 7338" d="M-498.429,67.441H-501.6V60.807h3.175Zm.6-7.148h3.171v-2.67h-3.171Zm-.6,0v-2.67H-501.6v2.67Zm.6,7.148h3.171V60.807h-3.171Zm3.171-11.717H-501.6v.5h6.942Zm18.7,5.083h-3.175v6.634h3.175Zm.6-.514h3.171v-2.67h-3.171Zm-.6,0v-2.67h-3.175v2.67Zm.6,7.148h3.171V60.807h-3.171Zm3.171-11.717h-6.942v.5h6.942Zm18.7,5.083h-3.175v6.634h3.175Zm.6-.514h3.171v-2.67H-452.9Zm-.6,0v-2.67h-3.175v2.67Zm.6,7.148h3.171V60.807H-452.9Zm3.171-11.717h-6.942v.5h6.942Zm-48.7,23.1H-501.6v6.634h3.175Zm.6-.514h3.171v-2.67h-3.171Zm-.6,0v-2.67H-501.6v2.67Zm.6,7.148h3.171V78.82h-3.171Zm3.171-11.717H-501.6v.5h6.942ZM-453.5,78.82h-3.175v6.634h3.175Zm.6-.514h3.171v-2.67H-452.9Zm-.6,0v-2.67h-3.175v2.67Zm.6,7.148h3.171V78.82H-452.9Zm3.171-11.717h-6.942v.5h6.942Zm-30.9,17.706V80.6h9.925V91.442Zm0-12.365a5.162,5.162,0,0,1,4.963-5.341,5.16,5.16,0,0,1,4.962,5.341v.761h-9.925Z" transform="translate(525.909 -18.485)" fill="#fff"/>
</svg>
